<svg xmlns="http://www.w3.org/2000/svg" width="15.616" height="31.803" viewBox="0 0 15.616 31.803">
  <g id="합치기_16" data-name="합치기 16" transform="translate(5984.999 3383)" fill="none" stroke-linejoin="bevel">
    <path d="M-5984-3354.921l.06-.092.006-.009a30.134,30.134,0,0,0,6.748-13.364H-5984V-3382h13.614v13.573l0,.006a16.91,16.91,0,0,1-1.357,5.446,23.565,23.565,0,0,1-3.056,5.3,28.335,28.335,0,0,1-5.847,5.675Z" stroke="none"/>
    <path d="M -5980.64208984375 -3352.0029296875 C -5978.34716796875 -3353.683349609375 -5976.3798828125 -3355.593505859375 -5974.79541015625 -3357.677978515625 C -5973.5263671875 -3359.344970703125 -5972.4990234375 -3361.127685546875 -5971.7392578125 -3362.974853515625 C -5970.45849609375 -3366.093994140625 -5970.384765625 -3368.32568359375 -5970.3818359375 -3368.42041015625 L -5970.384765625 -3368.4267578125 L -5970.384765625 -3381.99951171875 L -5983.99853515625 -3381.99951171875 L -5983.99853515625 -3368.3857421875 L -5977.18603515625 -3368.3857421875 C -5978.88720703125 -3360.3359375 -5983.8828125 -3355.073974609375 -5983.93359375 -3355.021484375 L -5983.93994140625 -3355.012451171875 L -5984 -3354.9208984375 L -5980.64208984375 -3352.0029296875 M -5980.05126953125 -3351.196044921875 L -5981.2978515625 -3351.248046875 L -5984.65576171875 -3354.166015625 L -5984.8359375 -3355.469482421875 L -5984.77587890625 -3355.56103515625 L -5984.75830078125 -3355.587158203125 L -5984.751953125 -3355.59619140625 L -5984.65234375 -3355.716796875 C -5984.609375 -3355.761962890625 -5980.2919921875 -3360.35009765625 -5978.44970703125 -3367.3857421875 L -5983.99853515625 -3367.3857421875 L -5984.99853515625 -3368.3857421875 L -5984.99853515625 -3381.99951171875 L -5983.99853515625 -3382.99951171875 L -5970.384765625 -3382.99951171875 L -5969.384765625 -3381.99951171875 L -5969.384765625 -3368.4267578125 L -5969.39013671875 -3368.4267578125 L -5969.38232421875 -3368.389404296875 C -5969.39013671875 -3368.134033203125 -5969.49755859375 -3365.8017578125 -5970.81396484375 -3362.594970703125 C -5971.60888671875 -3360.6630859375 -5972.6806640625 -3358.80517578125 -5973.99951171875 -3357.072265625 C -5975.64306640625 -3354.91015625 -5977.6796875 -3352.932861328125 -5980.05126953125 -3351.196044921875 Z" stroke="none" fill="#434343"/>
  </g>
</svg>
