<svg xmlns="http://www.w3.org/2000/svg" width="34" height="33.999" viewBox="0 0 34 33.999">
  <g id="패스_20" data-name="패스 20" transform="translate(-13537.478 -4788.421)" fill="none">
    <path d="M13571.478,4801.395l-12.991,0-4.016-12.977-4.013,12.984h-12.98l10.5,8.025-4,12.989,10.5-8.024,10.5,8.019-4-12.979Z" stroke="none"/>
    <path d="M 13554.470703125 4790.11376953125 L 13550.935546875 4801.55322265625 L 13550.8271484375 4801.90576171875 L 13550.4580078125 4801.90576171875 L 13538.9541015625 4801.90576171875 L 13548.2763671875 4809.0341796875 L 13548.552734375 4809.24560546875 L 13548.4501953125 4809.57861328125 L 13544.9072265625 4821.07470703125 L 13554.169921875 4813.9990234375 L 13554.4736328125 4813.767578125 L 13554.77734375 4813.9990234375 L 13564.0380859375 4821.06982421875 L 13560.494140625 4809.58349609375 L 13560.3916015625 4809.25048828125 L 13560.66796875 4809.0390625 L 13570.0009765625 4801.89501953125 L 13558.486328125 4801.8984375 L 13558.1181640625 4801.8984375 L 13558.0087890625 4801.54638671875 L 13554.470703125 4790.11376953125 M 13554.470703125 4788.42138671875 L 13558.486328125 4801.3984375 L 13571.4775390625 4801.39453125 L 13560.9716796875 4809.43603515625 L 13564.9765625 4822.41552734375 L 13554.4736328125 4814.396484375 L 13543.96875 4822.42041015625 L 13547.97265625 4809.43115234375 L 13537.4775390625 4801.40576171875 L 13550.4580078125 4801.40576171875 L 13554.470703125 4788.42138671875 Z" stroke="none" fill="#434343"/>
  </g>
</svg>
